<svg xmlns="http://www.w3.org/2000/svg" className='col-span-4' height="24px" width="24px" fill="#111" viewBox="0 0 24 24">
<path d="M11.9 15.767c-.6 0-1.1.5-1.1 1.1 0 .6.5 1.1 1.1 1.1s1.1-.5 1.1-1.1c0-.6-.5-1.1-1.1-1.1m0-9.6c-1.3 0-2.5 1.1-2.6 1.3-.4.4-.4 1 0 1.4.4.4 1 .4 1.4 0 .2-.3.8-.8 1.2-.8.5 0 1 .4 1 1 0 .3-.1.6-.4.8-1 .7-1.6 1.8-1.6 2.8v.3c0 .5.4 1 1 1s1-.4 1-1v-.3c0-.6.5-1.1.8-1.3.7-.5 1.2-1.4 1.2-2.4-.1-1.5-1.4-2.8-3-2.8"></path>
<path d="M12 23.5C5.7 23.5.5 18.3.5 12S5.7.5 12 .5 23.5 5.7 23.5 12 18.3 23.5 12 23.5zm0-21c-5.2 0-9.5 4.3-9.5 9.5s4.3 9.5 9.5 9.5 9.5-4.3 9.5-9.5-4.3-9.5-9.5-9.5z"></path>
</svg>