<svg xmlns="http://www.w3.org/2000/svg" className='col-span-4' height="24px" width="24px" fill="#111" viewBox="0 0 1000 1000" >
<path d="M995.6 241.3c0-4.4-4.4-4.4-4.4-8.8-4.4-4.4-8.8-4.4-8.8-8.8H978L486.9 4.5h-35.1L22 219.3h-4.4l-8.8 8.8c-3.2 3.6-4.8 8.4-4.4 13.2H.1v504.3C-1 760.8 7.9 775 22 780.7l495.5 214.9h30.7L978 780.7c13.3-6.6 21.8-20.2 21.9-35.1V254.4c.4-4.8-1.1-9.5-4.3-13.1zM469.3 83.4l399.1 175.4-122.8 61.4-399.1-175.4 122.8-61.4zm61.4 342.1L131.6 250l122.8-61.4L653.5 364l-122.8 61.5zM79 315.8l412.2 179.8V899L79 719.3V315.8zm842 403.5L570.2 894.7V495.6L921 320.2v399.1z"></path>
</svg>